ffmpeg version 2023-05-18-git-01d9a84ef5-essentials_build-www.gyan.dev Copyright (c) 2000-2023 the FFmpeg developers
  built with gcc 12.2.0 (Rev10, Built by MSYS2 project)
  configuration: --enable-gpl --enable-version3 --enable-static --disable-w32threads --disable-autodetect --enable-fontconfig --enable-iconv --enable-gnutls --enable-libxml2 --enable-gmp --enable-bzlib --enable-lzma --enable-zlib --enable-libsrt --enable-libssh --enable-libzmq --enable-avisynth --enable-sdl2 --enable-libwebp --enable-libx264 --enable-libx265 --enable-libxvid --enable-libaom --enable-libopenjpeg --enable-libvpx --enable-mediafoundation --enable-libass --enable-libfreetype --enable-libfribidi --enable-libvidstab --enable-libvmaf --enable-libzimg --enable-amf --enable-cuda-llvm --enable-cuvid --enable-ffnvcodec --enable-nvdec --enable-nvenc --enable-d3d11va --enable-dxva2 --enable-libvpl --enable-libgme --enable-libopenmpt --enable-libopencore-amrwb --enable-libmp3lame --enable-libtheora --enable-libvo-amrwbenc --enable-libgsm --enable-libopencore-amrnb --enable-libopus --enable-libspeex --enable-libvorbis --enable-librubberband
  libavutil      58.  7.100 / 58.  7.100
  libavcodec     60. 14.100 / 60. 14.100
  libavformat    60.  5.100 / 60.  5.100
  libavdevice    60.  2.100 / 60.  2.100
  libavfilter     9.  8.100 /  9.  8.100
  libswscale      7.  2.100 /  7.  2.100
  libswresample   4. 11.100 /  4. 11.100
  libpostproc    57.  2.100 / 57.  2.100
Splitting the commandline.
Reading option '-v' ... matched as option 'v' (set logging level) with argument 'debug'.
Reading option '-nostdin' ... matched as option 'stdin' (enable or disable interaction on standard input) with argument 0.
Reading option '-progress' ... matched as option 'progress' (write program-readable progress information) with argument 'C:/Users/INTEL/AppData/Local/Temp/KritaFFmpegProgress.nAvMiD'.
Reading option '-r' ... matched as option 'r' (set frame rate (Hz value, fraction or abbreviation)) with argument '24'.
Reading option '-start_number' ... matched as AVOption 'start_number' with argument '0'.
Reading option '-i' ... matched as input url with argument 'D:/Trev/Python Projects/DumpsterDash/assets/frame%04d.png'.
Reading option '-i' ... matched as input url with argument 'D:/Trev/Python Projects/DumpsterDash/assets/palette.png'.
Reading option '-lavfi' ... matched as option 'lavfi' (create a complex filtergraph) with argument '[0:v][1:v] paletteuse'.
Reading option '-y' ... matched as option 'y' (overwrite output files) with argument '1'.
Reading option 'D:/Trev/Python Projects/DumpsterDash/assets/wallyrun.gif' ... matched as output url.
Finished splitting the commandline.
Parsing a group of options: global .
Applying option v (set logging level) with argument debug.
Applying option nostdin (enable or disable interaction on standard input) with argument 0.
Applying option progress (write program-readable progress information) with argument C:/Users/INTEL/AppData/Local/Temp/KritaFFmpegProgress.nAvMiD.
[file @ 000001aad2411a40] Setting default whitelist 'file,crypto,data'
Applying option lavfi (create a complex filtergraph) with argument [0:v][1:v] paletteuse.
Applying option y (overwrite output files) with argument 1.
Successfully parsed a group of options.
Parsing a group of options: input url D:/Trev/Python Projects/DumpsterDash/assets/frame%04d.png.
Applying option r (set frame rate (Hz value, fraction or abbreviation)) with argument 24.
Successfully parsed a group of options.
Opening an input file: D:/Trev/Python Projects/DumpsterDash/assets/frame%04d.png.
[image2 @ 000001aad240f2c0] Opening 'D:/Trev/Python Projects/DumpsterDash/assets/frame0000.png' for reading
[file @ 000001aad2455dc0] Setting default whitelist 'file,crypto,data'
[AVIOContext @ 000001aad245df00] Statistics: 20414 bytes read, 0 seeks
[image2 @ 000001aad240f2c0] Opening 'D:/Trev/Python Projects/DumpsterDash/assets/frame0001.png' for reading
[file @ 000001aad2463200] Setting default whitelist 'file,crypto,data'
[AVIOContext @ 000001aad245de40] Statistics: 20431 bytes read, 0 seeks
[image2 @ 000001aad240f2c0] Opening 'D:/Trev/Python Projects/DumpsterDash/assets/frame0002.png' for reading
[file @ 000001aad245de40] Setting default whitelist 'file,crypto,data'
[AVIOContext @ 000001aad2463280] Statistics: 20412 bytes read, 0 seeks
[image2 @ 000001aad240f2c0] Opening 'D:/Trev/Python Projects/DumpsterDash/assets/frame0003.png' for reading
[file @ 000001aad2463200] Setting default whitelist 'file,crypto,data'
[AVIOContext @ 000001aad24a2480] Statistics: 20431 bytes read, 0 seeks
[image2 @ 000001aad240f2c0] Opening 'D:/Trev/Python Projects/DumpsterDash/assets/frame0004.png' for reading
[file @ 000001aad24a2480] Setting default whitelist 'file,crypto,data'
[AVIOContext @ 000001aad24a7640] Statistics: 5766 bytes read, 0 seeks
[image2 @ 000001aad240f2c0] Opening 'D:/Trev/Python Projects/DumpsterDash/assets/frame0005.png' for reading
[file @ 000001aad24a7640] Setting default whitelist 'file,crypto,data'
[AVIOContext @ 000001aad24a8f40] Statistics: 5766 bytes read, 0 seeks
[image2 @ 000001aad240f2c0] Opening 'D:/Trev/Python Projects/DumpsterDash/assets/frame0006.png' for reading
[file @ 000001aad24a8f40] Setting default whitelist 'file,crypto,data'
[AVIOContext @ 000001aad24aa840] Statistics: 5766 bytes read, 0 seeks
[image2 @ 000001aad240f2c0] Opening 'D:/Trev/Python Projects/DumpsterDash/assets/frame0007.png' for reading
[file @ 000001aad24aa840] Setting default whitelist 'file,crypto,data'
[AVIOContext @ 000001aad24ac140] Statistics: 5766 bytes read, 0 seeks
[image2 @ 000001aad240f2c0] Opening 'D:/Trev/Python Projects/DumpsterDash/assets/frame0008.png' for reading
[file @ 000001aad24ac140] Setting default whitelist 'file,crypto,data'
[AVIOContext @ 000001aad24b5a80] Statistics: 7063 bytes read, 0 seeks
[image2 @ 000001aad240f2c0] Opening 'D:/Trev/Python Projects/DumpsterDash/assets/frame0009.png' for reading
[file @ 000001aad24ac140] Setting default whitelist 'file,crypto,data'
[AVIOContext @ 000001aad24b5a80] Statistics: 7063 bytes read, 0 seeks
[image2 @ 000001aad240f2c0] Opening 'D:/Trev/Python Projects/DumpsterDash/assets/frame0010.png' for reading
[file @ 000001aad24ac140] Setting default whitelist 'file,crypto,data'
[AVIOContext @ 000001aad24b5a80] Statistics: 7063 bytes read, 0 seeks
[image2 @ 000001aad240f2c0] Opening 'D:/Trev/Python Projects/DumpsterDash/assets/frame0011.png' for reading
[file @ 000001aad24ac140] Setting default whitelist 'file,crypto,data'
[AVIOContext @ 000001aad24b5a80] Statistics: 7063 bytes read, 0 seeks
[image2 @ 000001aad240f2c0] Opening 'D:/Trev/Python Projects/DumpsterDash/assets/frame0012.png' for reading
[file @ 000001aad24ac140] Setting default whitelist 'file,crypto,data'
[AVIOContext @ 000001aad24b5a80] Statistics: 23409 bytes read, 0 seeks
[image2 @ 000001aad240f2c0] Opening 'D:/Trev/Python Projects/DumpsterDash/assets/frame0013.png' for reading
[file @ 000001aad24ac140] Setting default whitelist 'file,crypto,data'
[AVIOContext @ 000001aad24b5a80] Statistics: 23409 bytes read, 0 seeks
[image2 @ 000001aad240f2c0] Opening 'D:/Trev/Python Projects/DumpsterDash/assets/frame0014.png' for reading
[file @ 000001aad24ac140] Setting default whitelist 'file,crypto,data'
[AVIOContext @ 000001aad24b5a80] Statistics: 23409 bytes read, 0 seeks
[image2 @ 000001aad240f2c0] Opening 'D:/Trev/Python Projects/DumpsterDash/assets/frame0015.png' for reading
[file @ 000001aad24ac140] Setting default whitelist 'file,crypto,data'
[AVIOContext @ 000001aad24b5a80] Statistics: 23409 bytes read, 0 seeks
[image2 @ 000001aad240f2c0] Opening 'D:/Trev/Python Projects/DumpsterDash/assets/frame0016.png' for reading
[file @ 000001aad24ac140] Setting default whitelist 'file,crypto,data'
[AVIOContext @ 000001aad24b5a80] Statistics: 23409 bytes read, 0 seeks
Input #0, image2, from 'D:/Trev/Python Projects/DumpsterDash/assets/frame%04d.png':
  Duration: 00:00:00.68, start: 0.000000, bitrate: N/A
  Stream #0:0, 17, 1/25: Video: png, 1 reference frame, rgba(pc, gbr/unknown/unknown), 200x200 [SAR 23622:23622 DAR 1:1], 0/1, 25 fps, 25 tbr, 25 tbn
Successfully opened the file.
Parsing a group of options: input url D:/Trev/Python Projects/DumpsterDash/assets/palette.png.
Successfully parsed a group of options.
Opening an input file: D:/Trev/Python Projects/DumpsterDash/assets/palette.png.
[AVFormatContext @ 000001aad248ccc0] Opening 'D:/Trev/Python Projects/DumpsterDash/assets/palette.png' for reading
[file @ 000001aad240f000] Setting default whitelist 'file,crypto,data'
[png_pipe @ 000001aad248ccc0] Format png_pipe probed with size=2048 and score=99
[png_pipe @ 000001aad248ccc0] Before avformat_find_stream_info() pos: 0 bytes read:1009 seeks:0 nb_streams:1
[png_pipe @ 000001aad248ccc0] After avformat_find_stream_info() pos: 1009 bytes read:1009 seeks:0 frames:1
Input #1, png_pipe, from 'D:/Trev/Python Projects/DumpsterDash/assets/palette.png':
  Duration: N/A, bitrate: N/A
  Stream #1:0, 1, 1/25: Video: png, 1 reference frame, rgba(pc, gbr/unknown/unknown), 16x16 [SAR 1:1 DAR 1:1], 0/1, 25 fps, 25 tbr, 25 tbn
Successfully opened the file.
detected 12 logical cores
Parsing a group of options: output url D:/Trev/Python Projects/DumpsterDash/assets/wallyrun.gif.
Successfully parsed a group of options.
Opening an output file: D:/Trev/Python Projects/DumpsterDash/assets/wallyrun.gif.
[file @ 000001aad248bb80] Setting default whitelist 'file,crypto,data'
Successfully opened the file.
Stream mapping:
  Stream #0:0 (png) -> paletteuse
  Stream #1:0 (png) -> paletteuse
  paletteuse:default -> Stream #0:0 (gif)
[vost#0:0/gif @ 000001aad248b340] cur_dts is invalid [init:0 i_done:0 finish:0] (this is harmless if it occurs once at the start per stream)
    Last message repeated 2 times
[in#0/image2 @ 000001aad240f100] Thread message queue blocking; consider raising the thread_queue_size option (current value: 8)
[vost#0:0/gif @ 000001aad248b340] cur_dts is invalid [init:0 i_done:0 finish:0] (this is harmless if it occurs once at the start per stream)
    Last message repeated 7 times
[in#0/image2 @ 000001aad240f100] EOF while reading input
[in#0/image2 @ 000001aad240f100] Terminating demuxer thread
[vost#0:0/gif @ 000001aad248b340] cur_dts is invalid [init:0 i_done:0 finish:0] (this is harmless if it occurs once at the start per stream)
    Last message repeated 5 times
[in#1/png_pipe @ 000001aad24ac140] EOF while reading input
[in#1/png_pipe @ 000001aad24ac140] Terminating demuxer thread
[graph 0 input from stream 0:0 @ 000001aad24deb40] Setting 'video_size' to value '200x200'
[graph 0 input from stream 0:0 @ 000001aad24deb40] Setting 'pix_fmt' to value '26'
[graph 0 input from stream 0:0 @ 000001aad24deb40] Setting 'time_base' to value '1/24'
[graph 0 input from stream 0:0 @ 000001aad24deb40] Setting 'pixel_aspect' to value '23622/23622'
[graph 0 input from stream 0:0 @ 000001aad24deb40] Setting 'frame_rate' to value '24/1'
[graph 0 input from stream 0:0 @ 000001aad24deb40] w:200 h:200 pixfmt:rgba tb:1/24 fr:24/1 sar:23622/23622
[graph 0 input from stream 1:0 @ 000001aad2898e80] Setting 'video_size' to value '16x16'
[graph 0 input from stream 1:0 @ 000001aad2898e80] Setting 'pix_fmt' to value '26'
[graph 0 input from stream 1:0 @ 000001aad2898e80] Setting 'time_base' to value '1/25'
[graph 0 input from stream 1:0 @ 000001aad2898e80] Setting 'pixel_aspect' to value '1/1'
[graph 0 input from stream 1:0 @ 000001aad2898e80] Setting 'frame_rate' to value '25/1'
[graph 0 input from stream 1:0 @ 000001aad2898e80] w:16 h:16 pixfmt:rgba tb:1/25 fr:25/1 sar:1/1
[format @ 000001aad289af80] Setting 'pix_fmts' to value 'rgb8|bgr8|rgb4_byte|bgr4_byte|gray|pal8'
[auto_scale_0 @ 000001aad289a180] w:iw h:ih flags:'' interl:0
[Parsed_paletteuse_0 @ 000001aad24dea40] auto-inserting filter 'auto_scale_0' between the filter 'graph 0 input from stream 0:0' and the filter 'Parsed_paletteuse_0'
[auto_scale_1 @ 000001aad2899880] w:iw h:ih flags:'' interl:0
[Parsed_paletteuse_0 @ 000001aad24dea40] auto-inserting filter 'auto_scale_1' between the filter 'graph 0 input from stream 1:0' and the filter 'Parsed_paletteuse_0'
[AVFilterGraph @ 000001aad26d8500] query_formats: 5 queried, 2 merged, 2 already done, 0 delayed
[swscaler @ 000001aad28b9800] [swscaler @ 000001aad28c87c0] Forcing full internal H chroma due to input having non subsampled chroma
[swscaler @ 000001aad28b9800] [swscaler @ 000001aad28db800] Forcing full internal H chroma due to input having non subsampled chroma
[swscaler @ 000001aad28b9800] [swscaler @ 000001aad28ee840] Forcing full internal H chroma due to input having non subsampled chroma
[swscaler @ 000001aad28b9800] [swscaler @ 000001aad2901880] Forcing full internal H chroma due to input having non subsampled chroma
[swscaler @ 000001aad28b9800] [swscaler @ 000001aad2914880] Forcing full internal H chroma due to input having non subsampled chroma
[swscaler @ 000001aad28b9800] [swscaler @ 000001aad292f8c0] Forcing full internal H chroma due to input having non subsampled chroma
[swscaler @ 000001aad28b9800] [swscaler @ 000001aad2942900] Forcing full internal H chroma due to input having non subsampled chroma
[swscaler @ 000001aad28b9800] [swscaler @ 000001aad2955940] Forcing full internal H chroma due to input having non subsampled chroma
[swscaler @ 000001aad28b9800] [swscaler @ 000001aad2968980] Forcing full internal H chroma due to input having non subsampled chroma
[swscaler @ 000001aad28b9800] [swscaler @ 000001aad297b980] Forcing full internal H chroma due to input having non subsampled chroma
[swscaler @ 000001aad28b9800] [swscaler @ 000001aad298e9c0] Forcing full internal H chroma due to input having non subsampled chroma
[swscaler @ 000001aad28b9800] [swscaler @ 000001aad29a1a00] Forcing full internal H chroma due to input having non subsampled chroma
[swscaler @ 000001aad28b9800] [swscaler @ 000001aad29b4a40] Forcing full internal H chroma due to input having non subsampled chroma
[auto_scale_0 @ 000001aad289a180] w:200 h:200 fmt:rgba sar:23622/23622 -> w:200 h:200 fmt:bgra sar:1/1 flags:0x00000004
[swscaler @ 000001aad29c7a40] [swscaler @ 000001aad29dcf80] Forcing full internal H chroma due to input having non subsampled chroma
[swscaler @ 000001aad29c7a40] [swscaler @ 000001aad29effc0] Forcing full internal H chroma due to input having non subsampled chroma
[swscaler @ 000001aad29c7a40] [swscaler @ 000001aad2a02fc0] Forcing full internal H chroma due to input having non subsampled chroma
[swscaler @ 000001aad29c7a40] [swscaler @ 000001aad2a16000] Forcing full internal H chroma due to input having non subsampled chroma
[swscaler @ 000001aad29c7a40] [swscaler @ 000001aad2a29040] Forcing full internal H chroma due to input having non subsampled chroma
[swscaler @ 000001aad29c7a40] [swscaler @ 000001aad2a3c080] Forcing full internal H chroma due to input having non subsampled chroma
[swscaler @ 000001aad29c7a40] [swscaler @ 000001aad2a4f080] Forcing full internal H chroma due to input having non subsampled chroma
[swscaler @ 000001aad29c7a40] [swscaler @ 000001aad2a620c0] Forcing full internal H chroma due to input having non subsampled chroma
[swscaler @ 000001aad29c7a40] [swscaler @ 000001aad2a75100] Forcing full internal H chroma due to input having non subsampled chroma
[swscaler @ 000001aad29c7a40] [swscaler @ 000001aad2a88140] Forcing full internal H chroma due to input having non subsampled chroma
[swscaler @ 000001aad29c7a40] [swscaler @ 000001aad2a9b140] Forcing full internal H chroma due to input having non subsampled chroma
[swscaler @ 000001aad29c7a40] [swscaler @ 000001aad2aae2c0] Forcing full internal H chroma due to input having non subsampled chroma
[swscaler @ 000001aad29c7a40] [swscaler @ 000001aad2ac1400] Forcing full internal H chroma due to input having non subsampled chroma
[auto_scale_1 @ 000001aad2899880] w:16 h:16 fmt:rgba sar:1/1 -> w:16 h:16 fmt:bgra sar:1/1 flags:0x00000004
[Parsed_paletteuse_0 @ 000001aad24dea40] [framesync @ 000001aad2815848] Selected 1/600 time base
[Parsed_paletteuse_0 @ 000001aad24dea40] [framesync @ 000001aad2815848] Sync level 2
[swscaler @ 000001aad28b9800] [swscaler @ 000001aad28c87c0] Forcing full internal H chroma due to input having non subsampled chroma
[swscaler @ 000001aad28b9800] [swscaler @ 000001aad28d57c0] Forcing full internal H chroma due to input having non subsampled chroma
[swscaler @ 000001aad28b9800] [swscaler @ 000001aad28e8800] Forcing full internal H chroma due to input having non subsampled chroma
[swscaler @ 000001aad28b9800] [swscaler @ 000001aad28fb800] Forcing full internal H chroma due to input having non subsampled chroma
[swscaler @ 000001aad28b9800] [swscaler @ 000001aad290e840] Forcing full internal H chroma due to input having non subsampled chroma
[swscaler @ 000001aad28b9800] [swscaler @ 000001aad292f8c0] Forcing full internal H chroma due to input having non subsampled chroma
[swscaler @ 000001aad28b9800] [swscaler @ 000001aad293c8c0] Forcing full internal H chroma due to input having non subsampled chroma
[swscaler @ 000001aad28b9800] [swscaler @ 000001aad294f900] Forcing full internal H chroma due to input having non subsampled chroma
[swscaler @ 000001aad28b9800] [swscaler @ 000001aad2962900] Forcing full internal H chroma due to input having non subsampled chroma
[swscaler @ 000001aad28b9800] [swscaler @ 000001aad2975940] Forcing full internal H chroma due to input having non subsampled chroma
[swscaler @ 000001aad28b9800] [swscaler @ 000001aad2988980] Forcing full internal H chroma due to input having non subsampled chroma
[swscaler @ 000001aad28b9800] [swscaler @ 000001aad299b9c0] Forcing full internal H chroma due to input having non subsampled chroma
[swscaler @ 000001aad28b9800] [swscaler @ 000001aad29ae9c0] Forcing full internal H chroma due to input having non subsampled chroma
[auto_scale_0 @ 000001aad289a180] w:200 h:200 fmt:rgba sar:23622/23622 -> w:200 h:200 fmt:bgra sar:1/1 flags:0x00000004
[swscaler @ 000001aad28b9800] [swscaler @ 000001aad28c87c0] Forcing full internal H chroma due to input having non subsampled chroma
[swscaler @ 000001aad28b9800] [swscaler @ 000001aad28d57c0] Forcing full internal H chroma due to input having non subsampled chroma
[swscaler @ 000001aad28b9800] [swscaler @ 000001aad28e8800] Forcing full internal H chroma due to input having non subsampled chroma
[swscaler @ 000001aad28b9800] [swscaler @ 000001aad28fb800] Forcing full internal H chroma due to input having non subsampled chroma
[swscaler @ 000001aad28b9800] [swscaler @ 000001aad290e840] Forcing full internal H chroma due to input having non subsampled chroma
[swscaler @ 000001aad28b9800] [swscaler @ 000001aad292f8c0] Forcing full internal H chroma due to input having non subsampled chroma
[swscaler @ 000001aad28b9800] [swscaler @ 000001aad293c8c0] Forcing full internal H chroma due to input having non subsampled chroma
[swscaler @ 000001aad28b9800] [swscaler @ 000001aad294f900] Forcing full internal H chroma due to input having non subsampled chroma
[swscaler @ 000001aad28b9800] [swscaler @ 000001aad2962900] Forcing full internal H chroma due to input having non subsampled chroma
[swscaler @ 000001aad28b9800] [swscaler @ 000001aad2975940] Forcing full internal H chroma due to input having non subsampled chroma
[swscaler @ 000001aad28b9800] [swscaler @ 000001aad2988980] Forcing full internal H chroma due to input having non subsampled chroma
[swscaler @ 000001aad28b9800] [swscaler @ 000001aad299b9c0] Forcing full internal H chroma due to input having non subsampled chroma
[swscaler @ 000001aad28b9800] [swscaler @ 000001aad29ae9c0] Forcing full internal H chroma due to input having non subsampled chroma
[auto_scale_0 @ 000001aad289a180] w:200 h:200 fmt:rgba sar:23622/23622 -> w:200 h:200 fmt:bgra sar:1/1 flags:0x00000004
[swscaler @ 000001aad28b9800] [swscaler @ 000001aad28c87c0] Forcing full internal H chroma due to input having non subsampled chroma
[swscaler @ 000001aad28b9800] [swscaler @ 000001aad28d57c0] Forcing full internal H chroma due to input having non subsampled chroma
[swscaler @ 000001aad28b9800] [swscaler @ 000001aad28e8800] Forcing full internal H chroma due to input having non subsampled chroma
[swscaler @ 000001aad28b9800] [swscaler @ 000001aad28fb800] Forcing full internal H chroma due to input having non subsampled chroma
[swscaler @ 000001aad28b9800] [swscaler @ 000001aad290e840] Forcing full internal H chroma due to input having non subsampled chroma
[swscaler @ 000001aad28b9800] [swscaler @ 000001aad292f8c0] Forcing full internal H chroma due to input having non subsampled chroma
[swscaler @ 000001aad28b9800] [swscaler @ 000001aad293c8c0] Forcing full internal H chroma due to input having non subsampled chroma
[swscaler @ 000001aad28b9800] [swscaler @ 000001aad294f900] Forcing full internal H chroma due to input having non subsampled chroma
[swscaler @ 000001aad28b9800] [swscaler @ 000001aad2962900] Forcing full internal H chroma due to input having non subsampled chroma
[swscaler @ 000001aad28b9800] [swscaler @ 000001aad2975940] Forcing full internal H chroma due to input having non subsampled chroma
[swscaler @ 000001aad28b9800] [swscaler @ 000001aad2988980] Forcing full internal H chroma due to input having non subsampled chroma
[swscaler @ 000001aad28b9800] [swscaler @ 000001aad299b9c0] Forcing full internal H chroma due to input having non subsampled chroma
[swscaler @ 000001aad28b9800] [swscaler @ 000001aad29ae9c0] Forcing full internal H chroma due to input having non subsampled chroma
[auto_scale_0 @ 000001aad289a180] w:200 h:200 fmt:rgba sar:23622/23622 -> w:200 h:200 fmt:bgra sar:1/1 flags:0x00000004
[swscaler @ 000001aad29c1a00] [swscaler @ 000001aad29dcf80] Forcing full internal H chroma due to input having non subsampled chroma
[swscaler @ 000001aad29c1a00] [swscaler @ 000001aad29e9f40] Forcing full internal H chroma due to input having non subsampled chroma
[swscaler @ 000001aad29c1a00] [swscaler @ 000001aad29fcf80] Forcing full internal H chroma due to input having non subsampled chroma
[swscaler @ 000001aad29c1a00] [swscaler @ 000001aad2a0ffc0] Forcing full internal H chroma due to input having non subsampled chroma
[swscaler @ 000001aad29c1a00] [swscaler @ 000001aad2a23000] Forcing full internal H chroma due to input having non subsampled chroma
[swscaler @ 000001aad29c1a00] [swscaler @ 000001aad2a36000] Forcing full internal H chroma due to input having non subsampled chroma
[swscaler @ 000001aad29c1a00] [swscaler @ 000001aad2a49040] Forcing full internal H chroma due to input having non subsampled chroma
[swscaler @ 000001aad29c1a00] [swscaler @ 000001aad2a5c080] Forcing full internal H chroma due to input having non subsampled chroma
[swscaler @ 000001aad29c1a00] [swscaler @ 000001aad2a6f0c0] Forcing full internal H chroma due to input having non subsampled chroma
[swscaler @ 000001aad29c1a00] [swscaler @ 000001aad2a820c0] Forcing full internal H chroma due to input having non subsampled chroma
[swscaler @ 000001aad29c1a00] [swscaler @ 000001aad2a95100] Forcing full internal H chroma due to input having non subsampled chroma
[swscaler @ 000001aad29c1a00] [swscaler @ 000001aad2aa8140] Forcing full internal H chroma due to input having non subsampled chroma
[swscaler @ 000001aad29c1a00] [swscaler @ 000001aad2abb180] Forcing full internal H chroma due to input having non subsampled chroma
[auto_scale_1 @ 000001aad2899880] w:16 h:16 fmt:rgba sar:1/1 -> w:16 h:16 fmt:bgra sar:1/1 flags:0x00000004
[swscaler @ 000001aad29c1a00] [swscaler @ 000001aad29dcf80] Forcing full internal H chroma due to input having non subsampled chroma
[swscaler @ 000001aad29c1a00] [swscaler @ 000001aad29e9f40] Forcing full internal H chroma due to input having non subsampled chroma
[swscaler @ 000001aad29c1a00] [swscaler @ 000001aad29fcf80] Forcing full internal H chroma due to input having non subsampled chroma
[swscaler @ 000001aad29c1a00] [swscaler @ 000001aad2a0ffc0] Forcing full internal H chroma due to input having non subsampled chroma
[swscaler @ 000001aad29c1a00] [swscaler @ 000001aad2a23000] Forcing full internal H chroma due to input having non subsampled chroma
[swscaler @ 000001aad29c1a00] [swscaler @ 000001aad2a36000] Forcing full internal H chroma due to input having non subsampled chroma
[swscaler @ 000001aad29c1a00] [swscaler @ 000001aad2a49040] Forcing full internal H chroma due to input having non subsampled chroma
[swscaler @ 000001aad29c1a00] [swscaler @ 000001aad2a5c080] Forcing full internal H chroma due to input having non subsampled chroma
[swscaler @ 000001aad29c1a00] [swscaler @ 000001aad2a6f0c0] Forcing full internal H chroma due to input having non subsampled chroma
[swscaler @ 000001aad29c1a00] [swscaler @ 000001aad2a820c0] Forcing full internal H chroma due to input having non subsampled chroma
[swscaler @ 000001aad29c1a00] [swscaler @ 000001aad2a95100] Forcing full internal H chroma due to input having non subsampled chroma
[swscaler @ 000001aad29c1a00] [swscaler @ 000001aad2aa8140] Forcing full internal H chroma due to input having non subsampled chroma
[swscaler @ 000001aad29c1a00] [swscaler @ 000001aad2abb180] Forcing full internal H chroma due to input having non subsampled chroma
[auto_scale_1 @ 000001aad2899880] w:16 h:16 fmt:rgba sar:1/1 -> w:16 h:16 fmt:bgra sar:1/1 flags:0x00000004
[swscaler @ 000001aad29c1a00] [swscaler @ 000001aad29dcf80] Forcing full internal H chroma due to input having non subsampled chroma
[swscaler @ 000001aad29c1a00] [swscaler @ 000001aad29e9f40] Forcing full internal H chroma due to input having non subsampled chroma
[swscaler @ 000001aad29c1a00] [swscaler @ 000001aad29fcf80] Forcing full internal H chroma due to input having non subsampled chroma
[swscaler @ 000001aad29c1a00] [swscaler @ 000001aad2a0ffc0] Forcing full internal H chroma due to input having non subsampled chroma
[swscaler @ 000001aad29c1a00] [swscaler @ 000001aad2a23000] Forcing full internal H chroma due to input having non subsampled chroma
[swscaler @ 000001aad29c1a00] [swscaler @ 000001aad2a36000] Forcing full internal H chroma due to input having non subsampled chroma
[swscaler @ 000001aad29c1a00] [swscaler @ 000001aad2a49040] Forcing full internal H chroma due to input having non subsampled chroma
[swscaler @ 000001aad29c1a00] [swscaler @ 000001aad2a5c080] Forcing full internal H chroma due to input having non subsampled chroma
[swscaler @ 000001aad29c1a00] [swscaler @ 000001aad2a6f0c0] Forcing full internal H chroma due to input having non subsampled chroma
[swscaler @ 000001aad29c1a00] [swscaler @ 000001aad2a820c0] Forcing full internal H chroma due to input having non subsampled chroma
[swscaler @ 000001aad29c1a00] [swscaler @ 000001aad2a95100] Forcing full internal H chroma due to input having non subsampled chroma
[swscaler @ 000001aad29c1a00] [swscaler @ 000001aad2aa8140] Forcing full internal H chroma due to input having non subsampled chroma
[swscaler @ 000001aad29c1a00] [swscaler @ 000001aad2abb180] Forcing full internal H chroma due to input having non subsampled chroma
[auto_scale_1 @ 000001aad2899880] w:16 h:16 fmt:rgba sar:1/1 -> w:16 h:16 fmt:bgra sar:1/1 flags:0x00000004
[Parsed_paletteuse_0 @ 000001aad24dea40] Copying data in avfilter.
    Last message repeated 1 times
Output #0, gif, to 'D:/Trev/Python Projects/DumpsterDash/assets/wallyrun.gif':
  Metadata:
    encoder         : Lavf60.5.100
  Stream #0:0, 0, 1/100: Video: gif, 1 reference frame, pal8(pc, gbr/unknown/unknown, progressive), 200x200 (0x0) [SAR 1:1 DAR 1:1], 0/1, q=2-31, 200 kb/s, 24 fps, 100 tbn
    Metadata:
      encoder         : Lavc60.14.100 gif
[vost#0:0/gif @ 000001aad248b340] Clipping frame in rate conversion by 0.000008
[gif @ 000001aad24d8e40] 137x186 image at pos (27;7) [area:200x200]
frame=    0 fps=0.0 q=-0.0 size=       0kB time=00:00:00.00 bitrate=N/A speed=   0x    [Parsed_paletteuse_0 @ 000001aad24dea40] Copying data in avfilter.
[gif @ 000001aad24d8e40] 137x186 image at pos (27;7) [area:200x200]
[Parsed_paletteuse_0 @ 000001aad24dea40] Copying data in avfilter.
[gif @ 000001aad24d8e40] 137x186 image at pos (27;7) [area:200x200]
[Parsed_paletteuse_0 @ 000001aad24dea40] Copying data in avfilter.
[gif @ 000001aad24d8e40] 137x186 image at pos (27;7) [area:200x200]
[Parsed_paletteuse_0 @ 000001aad24dea40] Copying data in avfilter.
[gif @ 000001aad24d8e40] 111x185 image at pos (43;8) [area:200x200]
[Parsed_paletteuse_0 @ 000001aad24dea40] Copying data in avfilter.
[gif @ 000001aad24d8e40] 111x185 image at pos (43;8) [area:200x200]
[Parsed_paletteuse_0 @ 000001aad24dea40] Copying data in avfilter.
[gif @ 000001aad24d8e40] 111x185 image at pos (43;8) [area:200x200]
[Parsed_paletteuse_0 @ 000001aad24dea40] Copying data in avfilter.
[gif @ 000001aad24d8e40] 111x185 image at pos (43;8) [area:200x200]
[Parsed_paletteuse_0 @ 000001aad24dea40] Copying data in avfilter.
[gif @ 000001aad24d8e40] 133x186 image at pos (36;8) [area:200x200]
[Parsed_paletteuse_0 @ 000001aad24dea40] Copying data in avfilter.
[gif @ 000001aad24d8e40] 133x186 image at pos (36;8) [area:200x200]
[Parsed_paletteuse_0 @ 000001aad24dea40] Copying data in avfilter.
[gif @ 000001aad24d8e40] 133x186 image at pos (36;8) [area:200x200]
[Parsed_paletteuse_0 @ 000001aad24dea40] Copying data in avfilter.
[gif @ 000001aad24d8e40] 133x186 image at pos (36;8) [area:200x200]
[Parsed_paletteuse_0 @ 000001aad24dea40] Copying data in avfilter.
[gif @ 000001aad24d8e40] 115x195 image at pos (39;5) [area:200x200]
[Parsed_paletteuse_0 @ 000001aad24dea40] Copying data in avfilter.
[gif @ 000001aad24d8e40] 115x195 image at pos (39;5) [area:200x200]
[Parsed_paletteuse_0 @ 000001aad24dea40] Copying data in avfilter.
[gif @ 000001aad24d8e40] 115x195 image at pos (39;5) [area:200x200]
[Parsed_paletteuse_0 @ 000001aad24dea40] Copying data in avfilter.
[gif @ 000001aad24d8e40] 115x195 image at pos (39;5) [area:200x200]
[Parsed_paletteuse_0 @ 000001aad24dea40] Copying data in avfilter.
[gif @ 000001aad24d8e40] 115x195 image at pos (39;5) [area:200x200]
[Parsed_paletteuse_0 @ 000001aad24dea40] [framesync @ 000001aad2815848] Sync level 0
[out_0_0 @ 000001aad2899d80] EOF on sink link out_0_0:default.
No more output streams to write to, finishing.
[out#0/gif @ 000001aad2584980] All streams finished
[out#0/gif @ 000001aad2584980] Terminating muxer thread
[AVIOContext @ 000001aad248bc80] Statistics: 87595 bytes written, 0 seeks, 1 writeouts
[out#0/gif @ 000001aad2584980] Output file #0 (D:/Trev/Python Projects/DumpsterDash/assets/wallyrun.gif):
[out#0/gif @ 000001aad2584980]   Output stream #0:0 (video): 17 frames encoded; 17 packets muxed (87575 bytes); 
[out#0/gif @ 000001aad2584980]   Total: 17 packets (87575 bytes) muxed
[out#0/gif @ 000001aad2584980] video:86kB audio:0kB subtitle:0kB other streams:0kB global headers:0kB muxing overhead: 0.022838%
frame=   17 fps=0.0 q=-0.0 Lsize=      86kB time=00:00:00.67 bitrate=1045.9kbits/s speed=10.5x    
[AVIOContext @ 000001aad240eb40] Statistics: 360 bytes written, 0 seeks, 2 writeouts
18 frames successfully decoded, 0 decoding errors
[in#0/image2 @ 000001aad240f100] Input file #0 (D:/Trev/Python Projects/DumpsterDash/assets/frame%04d.png):
[in#0/image2 @ 000001aad240f100]   Input stream #0:0 (video): 17 packets read (250049 bytes); 17 frames decoded; 
[in#0/image2 @ 000001aad240f100]   Total: 17 packets (250049 bytes) demuxed
[in#1/png_pipe @ 000001aad24ac140] Input file #1 (D:/Trev/Python Projects/DumpsterDash/assets/palette.png):
[in#1/png_pipe @ 000001aad24ac140]   Input stream #1:0 (video): 1 packets read (1009 bytes); 1 frames decoded; 
[in#1/png_pipe @ 000001aad24ac140]   Total: 1 packets (1009 bytes) demuxed
[AVIOContext @ 000001aad24b5a80] Statistics: 1009 bytes read, 0 seeks
